<svg version="1.1" id="Layer_1" xmlns="http://www.w3.org/2000/svg" xmlns:xlink="http://www.w3.org/1999/xlink" x="0px" y="0px"
	 width="130px" height="130px" viewBox="0 0 130 130" enable-background="new 0 0 130 130" xml:space="preserve">
  <g>
	<g id="Rounded_Rectangle_5_copy_49_6_">
		<path fill="#F39943" d="M117.094,0.999H12.906C6.33,0.999,0.999,6.33,0.999,12.906v104.188c0,6.576,5.331,11.907,11.907,11.907
			h104.188c6.576,0,11.907-5.331,11.907-11.907V12.906C129.001,6.33,123.67,0.999,117.094,0.999z"/>
	</g>
	<g id="Shape_329_1_">
		<path fill="#CB7A2D" d="M129.001,117.094V69.428L97.095,37.922l-62.78,2.92L55.02,65.32L34.314,78.802l13.992,13.992l-1.825,3.285
			l32.728,32.922h37.885C123.67,129.001,129.001,123.67,129.001,117.094z"/>
	</g>
	<g id="Rectangle_12">
		<rect x="38.695" y="40.842" fill="#FFF6E4" width="52.56" height="34.31"/>
	</g>
	<g id="Rectangle_12_copy">
		<rect x="64.975" y="40.842" fill="#F5EBD6" width="26.28" height="34.31"/>
	</g>
	<g id="Shape_350_2_">
		<path fill="#3FAA96" d="M76.656,53.987c-0.803,0-1.454,0.609-1.454,1.36v13.324c0,0.751,0.651,1.36,1.454,1.36
			c0.806,0,1.457-0.609,1.457-1.36V55.348C78.113,54.597,77.462,53.987,76.656,53.987z"/>
	</g>
	<g id="Shape_349_2_">
		<path fill="#DD574B" d="M72.276,56.178c-0.803,0-1.454,0.614-1.454,1.373v11.107c0,0.759,0.651,1.374,1.454,1.374
			c0.806,0,1.457-0.615,1.457-1.374V57.551C73.733,56.792,73.082,56.178,72.276,56.178z"/>
	</g>
	<g id="Shape_348_2_">
		<path fill="#8DA552" d="M68.626,59.089c-0.805,0-1.456,0.617-1.456,1.379v8.186c0,0.761,0.651,1.379,1.456,1.379
			c0.803,0,1.454-0.618,1.454-1.379v-8.186C70.08,59.706,69.429,59.089,68.626,59.089z"/>
	</g>
	<g id="Shape_347_2_">
		<path fill="#79769D" d="M64.977,56.178c-0.803,0-1.457,0.621-1.457,1.386v11.083c0,0.766,0.654,1.385,1.457,1.385
			c0.806,0,1.457-0.619,1.457-1.385V57.563C66.434,56.799,65.782,56.178,64.977,56.178z"/>
	</g>
	<g id="Shape_346_2_">
		<path fill="#4A8CAE" d="M60.597,52.512c-0.803,0-1.457,0.62-1.457,1.385v14.75c0,0.766,0.654,1.385,1.457,1.385
			c0.802,0,1.457-0.619,1.457-1.385v-14.75C62.054,53.132,61.398,52.512,60.597,52.512z"/>
	</g>
	<g id="Shape_345_2_">
		<path fill="#F39943" d="M56.946,56.175c-0.806,0-1.457,0.615-1.457,1.373V68.66c0,0.758,0.651,1.372,1.457,1.372
			c0.803,0,1.457-0.614,1.457-1.372V57.548C58.403,56.79,57.749,56.175,56.946,56.175z"/>
	</g>
	<g id="Shape_344_2_">
		<path fill="#CB5A7C" d="M53.294,59.082c-0.803,0-1.454,0.618-1.454,1.382v8.187c0,0.763,0.651,1.382,1.454,1.382
			c0.805,0,1.456-0.619,1.456-1.382v-8.187C54.75,59.7,54.099,59.082,53.294,59.082z"/>
	</g>
	<g id="Shape_343">
		<path fill="#DD574B" d="M78.082,47.281c-0.006-0.377-0.17-0.734-0.455-0.988c-0.289-0.254-0.669-0.376-1.055-0.348l-2.802,0.231
			c-0.764,0.063-1.331,0.72-1.268,1.467c0.049,0.541,0.43,0.97,0.916,1.146l-4.478,4.81l-6.896-6.59
			c-0.53-0.504-1.369-0.516-1.911-0.032l-7.852,7.003c-0.567,0.506-0.608,1.364-0.09,1.918c0.521,0.553,1.4,0.59,1.966,0.086
			l6.881-6.137l6.987,6.675c0.26,0.249,0.608,0.388,0.972,0.388c0.015,0,0.029,0,0.04-0.002c0.381-0.009,0.735-0.169,0.988-0.442
			l5.449-5.849c0.223,0.459,0.694,0.778,1.248,0.778h0.015c0.77-0.008,1.383-0.623,1.374-1.373L78.082,47.281z"/>
	</g>
	<g id="Shape_341">
		<path fill="#42443D" d="M56.99,82.345l-11.137,11.06c-0.829,0.824-0.839,2.168-0.017,3.002c0.417,0.419,0.96,0.629,1.506,0.629
			c0.536,0.001,1.075-0.203,1.486-0.613l11.138-11.06c0.832-0.824,0.839-2.169,0.017-3.002
			C59.161,81.529,57.819,81.518,56.99,82.345z M35.691,41.56l60.013,0.011c1.168,0,2.116-0.976,2.116-2.18
			c0-1.203-0.947-2.18-2.115-2.18l-60.013-0.012c-1.171,0-2.115,0.977-2.115,2.18C33.576,40.584,34.521,41.559,35.691,41.56z
			 M95.722,75.156l-60.013-0.011c-1.172-0.001-2.116,0.98-2.116,2.191c0,1.21,0.944,2.191,2.115,2.192l60.013,0.011
			c1.168,0,2.115-0.982,2.115-2.192C97.837,76.138,96.889,75.156,95.722,75.156z M74.421,82.349
			c-0.832-0.828-2.171-0.817-2.996,0.014c-0.822,0.832-0.812,2.177,0.016,3.002l11.127,11.062c0.414,0.411,0.953,0.615,1.493,0.615
			c0.546,0,1.088-0.21,1.503-0.629c0.822-0.832,0.815-2.177-0.013-3.002L74.421,82.349z"/>
	</g>
</g>
</svg>
