<svg version="1.1" id="Layer_1" xmlns="http://www.w3.org/2000/svg" xmlns:xlink="http://www.w3.org/1999/xlink" x="0px" y="0px"
	 width="130px" height="130px" viewBox="0 0 130 130" enable-background="new 0 0 130 130" xml:space="preserve">
<g>
	<g id="Rounded_Rectangle_5_copy_19_6_">
		<path fill="#3FAA96" d="M117.094,0.999H12.906C6.33,0.999,0.999,6.33,0.999,12.906v104.188c0,6.576,5.331,11.907,11.907,11.907
			h104.188c6.576,0,11.907-5.331,11.907-11.907V12.906C129.001,6.33,123.67,0.999,117.094,0.999z"/>
	</g>
	<g id="Shape_548_8_">
		<path fill="#18816D" d="M129.001,117.094V71.001L96,38l-23,1.001L49,44l-3,3l-5-3.399L40,45l-6,2v9l1,7l1,4l31,31l-4,8.9
			l21.001,22.101h33.093C123.67,129.001,129.001,123.67,129.001,117.094z"/>
	</g>
	<g id="Shape_545">
		<path fill="#EDE3D0" d="M65.046,63.868h-2.325c-0.078,0-0.157,0.004-0.236,0.014H38.732c-2.036,0-3.694-1.649-3.694-3.678v-9.516
			c0-2.023,1.658-3.669,3.694-3.669h1.283c1.117,0,2.021-0.899,2.021-2.011s-0.904-2.011-2.021-2.011h-1.283
			c-4.263,0-7.736,3.45-7.736,7.69v9.516c0,4.245,3.474,7.699,7.736,7.699h23.988c0.079,0,0.158-0.004,0.233-0.014h2.092
			c0.485,0,0.896,0.408,0.896,0.894v7.2c0,1.111,0.903,2.011,2.021,2.011s2.021-0.899,2.021-2.011v-7.2
			C69.984,66.073,67.77,63.868,65.046,63.868z"/>
	</g>
	<g id="Shape_547">
		<path fill="#FFC24B" d="M89.391,33.705H51.73c-4.496,0-8.176,3.68-8.176,8.176v7.865c0,4.496,3.68,8.174,8.176,8.174h37.66
			c4.496,0,8.176-3.678,8.176-8.174v-7.865C97.566,37.385,93.887,33.705,89.391,33.705z"/>
	</g>
	<g id="Rectangle_46">
		<path fill="#EEB23C" d="M43.555,45v4.746c0,4.496,3.68,8.174,8.176,8.174h37.66c4.496,0,8.176-3.678,8.176-8.174V45H43.555z"/>
	</g>
	<g id="Shape_546">
		<path fill="#42443D" d="M70.535,78.871H65.52c-1.992,0-3.621,1.633-3.621,3.623v22.178c0,1.994,1.629,3.623,3.621,3.623h5.016
			c1.992,0,3.621-1.629,3.621-3.623V82.494C74.156,80.504,72.527,78.871,70.535,78.871z"/>
	</g>
</g>
</svg>
