<svg version="1.1" id="Layer_1" xmlns="http://www.w3.org/2000/svg" xmlns:xlink="http://www.w3.org/1999/xlink" x="0px" y="0px"
	 width="130px" height="130px" viewBox="0 0 130 130" enable-background="new 0 0 130 130" xml:space="preserve">
<g>
	<g id="Rounded_Rectangle_5_copy_26">
		<path fill="#DD574B" d="M117.094,0.999H12.906C6.33,0.999,0.999,6.33,0.999,12.906v104.188c0,6.576,5.331,11.907,11.907,11.907
			h104.188c6.576,0,11.907-5.331,11.907-11.907V12.906C129.001,6.33,123.67,0.999,117.094,0.999z"/>
	</g>
	<g id="Shape_313_copy">
		<path fill="#B94136" d="M129.001,117.094V89.982L72.945,33.895L56.885,50.002l7.3,9.49v7.3l-10.22,0.729l-4.38-0.729
			l-10.464,0.083l-0.817,10.537l5.475,6.9l-3.44,4.468l-7.008,4.26l35.95,35.961h47.813
			C123.67,129.001,129.001,123.67,129.001,117.094z"/>
	</g>
	<g id="Shape_321">
		<path fill="#F39943" d="M95.735,81.471h-9.927c-0.747,0-1.357,0.61-1.357,1.354v9.928c0,0.745,0.61,1.354,1.357,1.354h9.927
			c0.744,0,1.354-0.609,1.354-1.354v-9.928C97.09,82.081,96.479,81.471,95.735,81.471z"/>
	</g>
	<g id="Shape_320">
		<path fill="#8DA552" d="M69.928,81.471h-9.934c-0.744,0-1.354,0.61-1.354,1.354v9.928c0,0.745,0.61,1.354,1.354,1.354h9.934
			c0.744,0,1.351-0.609,1.351-1.354v-9.928C71.278,82.081,70.672,81.471,69.928,81.471z"/>
	</g>
	<g id="Shape_319">
		<path fill="#3FAA96" d="M44.021,81.471h-9.926c-0.744,0-1.354,0.61-1.354,1.354v9.928c0,0.745,0.61,1.354,1.354,1.354h9.926
			c0.745,0,1.354-0.609,1.354-1.354v-9.928C45.375,82.081,44.766,81.471,44.021,81.471z"/>
	</g>
	<g id="Shape_318">
		<path fill="#42443D" d="M57.542,51.053h14.714c0.744,0,1.354-0.612,1.354-1.356V34.99c0-0.744-0.61-1.354-1.354-1.354H57.542
			c-0.741,0-1.352,0.61-1.352,1.354v14.706C56.19,50.44,56.801,51.053,57.542,51.053z M90.643,65.528H66.582v-9.782
			c0-0.873-0.708-1.583-1.58-1.583c-0.876,0-1.584,0.71-1.584,1.583v9.782H39.154c-0.875,0-1.584,0.709-1.584,1.582v9.605
			c0,0.874,0.709,1.582,1.584,1.582c0.872,0,1.581-0.708,1.581-1.582v-8.021h22.683v8.18c0,0.874,0.708,1.584,1.584,1.584
			c0.872,0,1.58-0.71,1.58-1.584v-8.18h22.48v8.021c0,0.874,0.708,1.582,1.58,1.582c0.876,0,1.584-0.708,1.584-1.582V67.11
			C92.227,66.237,91.519,65.528,90.643,65.528z"/>
	</g>
</g>
</svg>
